<?xml version="1.0" encoding="utf-8"?>
<!-- Generator: Adobe Illustrator 26.0.3, SVG Export Plug-In . SVG Version: 6.00 Build 0)  -->
<svg version="1.1" id="Layer_1" xmlns="http://www.w3.org/2000/svg" xmlns:xlink="http://www.w3.org/1999/xlink" x="0px" y="0px"
	 viewBox="0 0 49.4 55.15" style="enable-background:new 0 0 49.4 55.15;" xml:space="preserve">
<style type="text/css">
	.st0{fill:#FFFFFF;stroke:#FFFFFF;stroke-width:2;stroke-linecap:round;stroke-linejoin:round;stroke-miterlimit:10;}
	.st1{fill:#FFFFFF;stroke:#FFFFFF;stroke-width:2;stroke-linejoin:round;stroke-miterlimit:10;}
	.st2{fill:#FFFFFF;stroke:#FFFFFF;stroke-width:2;stroke-miterlimit:10;}
	.st3{fill:none;stroke:#FFFFFF;stroke-width:2;stroke-linecap:square;stroke-miterlimit:10;}
</style>
<path class="st0" d="M16.26,26.78c0,0,0,8.11,0,10.82"/>
<path class="st0" d="M19.38,23.88c0,0,0,12.3,0,16.4"/>
<path class="st0" d="M30.34,22.76c0,13.95,0,13.77,0,18.54"/>
<path class="st0" d="M33.72,25.83c0,9.15,0,9.04,0,12.17"/>
<path class="st0" d="M23.06,37.99c0,0,0,4.3,0,5.74"/>
<path class="st0" d="M26.65,37.99c0,0,0.02,6.36,0,6.05"/>
<path class="st0" d="M23.06,20.85c0,0,0,5.63,0,7.51"/>
<path class="st0" d="M26.65,20.85c0,0,0,5.63,0,7.51"/>
<path class="st0" d="M39.08,23.79"/>
<g>
	<path class="st0" d="M25.78,15.87"/>
	<line class="st1" x1="24.48" y1="13.77" x2="38.77" y2="25.76"/>
	<line class="st2" x1="25.64" y1="13.9" x2="11.72" y2="25.83"/>
</g>
<path class="st0" d="M27.76,26.72"/>
<g>
	<line class="st1" x1="24.8" y1="7.53" x2="43.01" y2="22.81"/>
	<line class="st1" x1="26.07" y1="7.65" x2="7.81" y2="23.28"/>
</g>
<path class="st3" d="M26.73,35.05l-3.67,0.02l0-3.59l3.67-0.02L26.73,35.05z"/>
</svg>
